<svg xmlns="http://www.w3.org/2000/svg" width="1920" height="1080" viewBox="0 0 1920 1080" role="img" aria-label="Luxury Turkish barber shop interior">
  <defs>
    <radialGradient id="glow" cx="50%" cy="18%" r="72%">
      <stop offset="0" stop-color="#8a6a36" stop-opacity=".42"/>
      <stop offset=".38" stop-color="#17120c" stop-opacity=".82"/>
      <stop offset="1" stop-color="#040404"/>
    </radialGradient>
    <linearGradient id="floor" x1="0" x2="1" y1="0" y2="1">
      <stop offset="0" stop-color="#2c241b"/>
      <stop offset=".5" stop-color="#0e0c0a"/>
      <stop offset="1" stop-color="#221811"/>
    </linearGradient>
    <linearGradient id="gold" x1="0" x2="1">
      <stop offset="0" stop-color="#8a6424"/>
      <stop offset=".52" stop-color="#d2a348"/>
      <stop offset="1" stop-color="#6f4a18"/>
    </linearGradient>
    <filter id="softShadow" x="-20%" y="-20%" width="140%" height="140%">
      <feDropShadow dx="0" dy="24" stdDeviation="22" flood-color="#000" flood-opacity=".55"/>
    </filter>
    <pattern id="wallPanels" width="210" height="260" patternUnits="userSpaceOnUse">
      <rect width="210" height="260" fill="#11100d"/>
      <rect x="14" y="18" width="182" height="224" rx="4" fill="none" stroke="#60471e" stroke-opacity=".34" stroke-width="3"/>
      <rect x="31" y="35" width="148" height="190" rx="3" fill="none" stroke="#b88732" stroke-opacity=".18" stroke-width="1.5"/>
    </pattern>
  </defs>

  <rect width="1920" height="1080" fill="#050505"/>
  <rect width="1920" height="720" fill="url(#wallPanels)"/>
  <rect width="1920" height="1080" fill="url(#glow)"/>

  <path d="M0 742h1920v338H0z" fill="url(#floor)"/>
  <path d="M640 742h640l210 338H430z" fill="#0a0908" opacity=".72"/>
  <path d="M0 740h1920" stroke="url(#gold)" stroke-width="3" opacity=".5"/>

  <g opacity=".68">
    <path d="M220 128h1480" stroke="#c79a45" stroke-opacity=".36" stroke-width="2"/>
    <path d="M260 164h1400" stroke="#c79a45" stroke-opacity=".22" stroke-width="1"/>
    <path d="M380 100v590M1540 100v590" stroke="#c79a45" stroke-opacity=".15" stroke-width="4"/>
  </g>

  <g filter="url(#softShadow)">
    <g transform="translate(160 230)">
      <rect x="0" y="0" width="310" height="430" rx="18" fill="#090909" stroke="url(#gold)" stroke-width="6"/>
      <rect x="26" y="28" width="258" height="374" rx="10" fill="#1b1a17" stroke="#d6ad58" stroke-opacity=".35" stroke-width="2"/>
      <rect x="46" y="48" width="218" height="334" rx="8" fill="#45413a" opacity=".42"/>
      <path d="M56 60c78 44 139 54 196 35" stroke="#fff" stroke-opacity=".12" stroke-width="22" stroke-linecap="round"/>
    </g>
    <g transform="translate(1450 230)">
      <rect x="0" y="0" width="310" height="430" rx="18" fill="#090909" stroke="url(#gold)" stroke-width="6"/>
      <rect x="26" y="28" width="258" height="374" rx="10" fill="#1b1a17" stroke="#d6ad58" stroke-opacity=".35" stroke-width="2"/>
      <rect x="46" y="48" width="218" height="334" rx="8" fill="#45413a" opacity=".42"/>
      <path d="M56 60c78 44 139 54 196 35" stroke="#fff" stroke-opacity=".12" stroke-width="22" stroke-linecap="round"/>
    </g>
  </g>

  <g opacity=".9">
    <circle cx="310" cy="176" r="18" fill="#f4d58a"/>
    <circle cx="1610" cy="176" r="18" fill="#f4d58a"/>
    <circle cx="578" cy="138" r="12" fill="#f4d58a" opacity=".75"/>
    <circle cx="1342" cy="138" r="12" fill="#f4d58a" opacity=".75"/>
    <path d="M310 194v54M1610 194v54" stroke="#c59b4d" stroke-width="3" opacity=".5"/>
  </g>

  <g filter="url(#softShadow)">
    <g transform="translate(250 670)">
      <ellipse cx="170" cy="214" rx="170" ry="46" fill="#000" opacity=".45"/>
      <rect x="68" y="34" width="210" height="96" rx="28" fill="#1a120e" stroke="#a17635" stroke-opacity=".55" stroke-width="3"/>
      <path d="M46 122h256l-32 130H78z" fill="#120d0a" stroke="#8e6427" stroke-opacity=".52" stroke-width="3"/>
      <rect x="104" y="0" width="138" height="58" rx="20" fill="#211711" stroke="#b98535" stroke-opacity=".55" stroke-width="3"/>
      <rect x="20" y="106" width="76" height="36" rx="18" fill="#17100c"/>
      <rect x="248" y="106" width="76" height="36" rx="18" fill="#17100c"/>
      <path d="M128 252v70M218 252v70" stroke="#352213" stroke-width="16" stroke-linecap="round"/>
    </g>
    <g transform="translate(1290 670) scale(-1 1)">
      <ellipse cx="170" cy="214" rx="170" ry="46" fill="#000" opacity=".45"/>
      <rect x="68" y="34" width="210" height="96" rx="28" fill="#1a120e" stroke="#a17635" stroke-opacity=".55" stroke-width="3"/>
      <path d="M46 122h256l-32 130H78z" fill="#120d0a" stroke="#8e6427" stroke-opacity=".52" stroke-width="3"/>
      <rect x="104" y="0" width="138" height="58" rx="20" fill="#211711" stroke="#b98535" stroke-opacity=".55" stroke-width="3"/>
      <rect x="20" y="106" width="76" height="36" rx="18" fill="#17100c"/>
      <rect x="248" y="106" width="76" height="36" rx="18" fill="#17100c"/>
      <path d="M128 252v70M218 252v70" stroke="#352213" stroke-width="16" stroke-linecap="round"/>
    </g>
  </g>

  <g opacity=".56">
    <rect x="740" y="70" width="440" height="170" rx="12" fill="#080808" stroke="url(#gold)" stroke-width="3"/>
    <path d="M778 115h364M778 157h364M778 199h364" stroke="#d2a348" stroke-opacity=".22" stroke-width="2"/>
    <path d="M960 240v428" stroke="#d2a348" stroke-opacity=".14" stroke-width="4"/>
  </g>

  <rect width="1920" height="1080" fill="#000" opacity=".18"/>
</svg>
